# xmcd
#
# Track frame offsets: 
#        150
#        19500
#        34350
#        53550
#        70875
#        89677
#        106973
#        122325
#        141816
#        161309
#        180059
#
# Disc length: 2598 seconds
#
# Revision: 0
# Processed by: cddbd v1.5.2PL0 Copyright (c) Steve Scherf et al.
# Submitted via: ExactAudioCopy v0.95b4
#
DISCID=810a240b
DTITLE=ฝน ธนสุนทร - หัวใจฝากถาม
DYEAR=2006
DGENRE=Country
TTITLE0=มันสว'ี
TTITLE1=คำรักอย่าฝากบอก
TTITLE2=หัวใจฝากถาม
TTITLE3=ต้อยรับกลับห้องใจ
TTITLE4=ผู้หวังดีที่หายไป
TTITLE5=เธอคือผู้รู้ใจ
TTITLE6=รักแท้หรือแค่กิ๊ก
TTITLE7=ฉันคือตัวอย่าง
TTITLE8=เบื่อหน้าก็อย่าทน
TTITLE9=ที่พึ่งสุดท้าย
TTITLE10=จูบแล้วลา
EXTD=
EXTT0=
EXTT1=
EXTT2=
EXTT3=
EXTT4=
EXTT5=
EXTT6=
EXTT7=
EXTT8=
EXTT9=
EXTT10=
PLAYORDER=
